<svg xmlns="http://www.w3.org/2000/svg" width="200" height="200" viewBox="0 0 200 200" version="1.1">
	<path d="M 56.479 9.358 C 50.246 12.260, 45.314 17.100, 42.588 22.989 C 40.568 27.353, 40.491 29.193, 40.215 79.375 C 39.900 136.920, 39.989 137.896, 46.277 146.141 C 48.097 148.527, 51.806 151.600, 54.676 153.099 L 59.816 155.784 47.581 174.142 C 40.852 184.239, 34.541 193.737, 33.558 195.250 L 31.770 198 41.710 198 L 51.649 198 61.517 183.500 L 71.385 169 100.942 169.034 L 130.500 169.068 140.063 183.284 L 149.626 197.500 158.313 197.789 C 166.816 198.072, 167 198.029, 167 195.758 C 167 194.448, 161.727 185.611, 154.895 175.469 C 148.237 165.586, 142.594 157.014, 142.353 156.421 C 142.113 155.827, 143.769 154.506, 146.032 153.485 C 151.270 151.124, 158.272 143.375, 159.811 138.236 C 161.495 132.617, 161.495 30.383, 159.811 24.764 C 157.991 18.688, 150.945 11.497, 144.420 9.056 C 139.221 7.111, 136.841 7.001, 100.212 7.010 C 61.742 7.019, 61.469 7.034, 56.479 9.358 M 85.225 15.175 C 84.551 15.849, 84 18.769, 84 21.665 C 84 25.847, 84.398 27.143, 85.934 27.965 C 86.998 28.534, 93.918 29, 101.312 29 C 111.685 29, 115.023 28.677, 115.930 27.584 C 116.623 26.749, 116.981 23.775, 116.802 20.334 L 116.500 14.500 101.475 14.225 C 90.635 14.027, 86.108 14.292, 85.225 15.175 M 65.542 35.729 C 58.201 37.594, 56 42.385, 56 56.500 C 56 68.814, 57.335 73.014, 62.190 75.974 C 65.345 77.898, 67.158 77.993, 100.882 77.996 C 135.027 78, 136.382 77.927, 139.645 75.911 C 141.504 74.761, 143.470 72.991, 144.013 71.976 C 144.556 70.962, 145 64.088, 145 56.701 C 145 44.437, 144.812 43.030, 142.832 40.514 C 138.658 35.207, 136.966 34.990, 100.782 35.116 C 82.477 35.180, 66.619 35.456, 65.542 35.729 M 61.263 120.050 C 51.521 126.460, 57.753 141.770, 69.229 139.617 C 74.565 138.616, 77.500 134.828, 77.500 128.942 C 77.500 125.003, 76.992 123.537, 74.903 121.448 C 71.294 117.840, 65.522 117.248, 61.263 120.050 M 128.763 119.511 C 125.749 121.206, 123 125.733, 123 129 C 123 134.300, 128.700 140, 134 140 C 136.935 140, 141.585 137.430, 143.439 134.783 C 149.571 126.029, 138.204 114.202, 128.763 119.511" stroke="none" fill="black" fill-rule="evenodd"/>
</svg>